<?xml version="1.0" standalone="no"?>
<!DOCTYPE svg PUBLIC "-//W3C//DTD SVG 20010904//EN"
 "http://www.w3.org/TR/2001/REC-SVG-20010904/DTD/svg10.dtd">
<svg version="1.0" xmlns="http://www.w3.org/2000/svg"
 width="300.000000pt" height="105.000000pt" viewBox="0 0 300.000000 105.000000"
 preserveAspectRatio="xMidYMid meet">

<g transform="translate(0.000000,105.000000) scale(0.100000,-0.100000)"
fill="#000000" stroke="none">
<path d="M20 1020 c-19 -19 -20 -33 -20 -330 l0 -311 25 -24 c20 -21 34 -25
79 -25 l56 0 -11 -27 c-55 -146 -5 -293 100 -293 52 0 89 19 130 65 21 25 37
34 49 31 10 -3 35 3 57 14 l39 20 43 -21 c23 -11 47 -17 54 -14 6 4 29 -10 52
-33 23 -22 52 -45 64 -51 32 -16 95 -13 122 5 55 39 76 152 46 250 -8 27 -15
50 -15 52 0 1 24 2 54 2 38 0 61 6 77 19 24 19 24 23 27 217 2 143 0 204 -9
221 -10 18 -10 28 0 47 20 36 11 159 -13 185 -19 21 -26 21 -503 21 -470 0
-484 -1 -503 -20z m245 -60 c4 -6 130 -10 346 -10 l339 0 0 -265 0 -265 -65 0
c-47 0 -73 5 -97 20 -28 17 -51 20 -140 20 -89 0 -108 -3 -108 -15 0 -10 10
-15 28 -15 44 0 54 -11 41 -48 l-11 -32 -78 0 c-74 0 -78 1 -84 24 -3 13 -9
31 -12 40 -5 13 1 16 35 16 30 0 41 4 41 15 0 12 -18 15 -102 15 -85 0 -109
-4 -136 -20 -24 -15 -50 -20 -102 -20 l-70 0 0 265 0 265 59 0 c33 0 63 5 66
10 3 6 15 10 25 10 10 0 22 -4 25 -10z m139 -590 l22 -55 99 0 98 0 20 59 19
58 49 -4 c63 -6 110 -43 143 -110 83 -170 5 -335 -121 -259 -17 11 -42 34 -54
50 -19 26 -30 31 -65 31 -25 0 -47 6 -54 15 -16 19 -51 19 -76 0 -10 -8 -36
-15 -56 -15 -30 0 -42 -6 -60 -31 -44 -59 -111 -84 -159 -59 -31 17 -49 64
-49 128 0 138 87 257 184 250 36 -3 39 -6 60 -58z"/>
<path d="M257 856 c-69 -25 -107 -80 -107 -154 0 -114 147 -193 240 -129 59
40 61 53 11 98 l-44 40 41 42 c23 24 42 46 42 50 0 13 -76 56 -110 61 -19 3
-52 0 -73 -8z m122 -42 l23 -16 -43 -44 -43 -44 44 -46 c43 -43 44 -46 26 -60
-26 -18 -79 -28 -112 -20 -15 4 -39 20 -55 35 -79 79 -23 211 90 211 27 0 56
-7 70 -16z"/>
<path d="M290 785 c0 -9 5 -15 11 -13 6 2 11 8 11 13 0 5 -5 11 -11 13 -6 2
-11 -4 -11 -13z"/>
<path d="M731 857 c-39 -19 -63 -62 -69 -116 -4 -50 -4 -51 22 -51 25 0 26 -2
26 -53 0 -40 5 -58 18 -70 26 -23 68 -21 93 4 18 18 21 29 16 70 -6 46 -5 48
21 51 25 3 27 6 24 47 -4 59 -27 100 -67 117 -42 17 -53 17 -84 1z m73 -208
c8 -47 -6 -72 -38 -67 -15 2 -22 12 -24 32 -6 49 6 76 32 76 20 0 24 -6 30
-41z"/>
<path d="M422 708 c5 -15 28 -18 29 -3 0 6 -7 12 -17 13 -10 3 -15 -1 -12 -10z"/>
<path d="M480 704 c0 -9 5 -14 12 -12 18 6 21 28 4 28 -9 0 -16 -7 -16 -16z"/>
<path d="M532 708 c5 -15 28 -18 29 -3 0 6 -7 12 -17 13 -10 3 -15 -1 -12 -10z"/>
<path d="M592 708 c6 -18 28 -21 28 -4 0 9 -7 16 -16 16 -9 0 -14 -5 -12 -12z"/>
<path d="M298 348 c-2 -15 -11 -24 -26 -26 -28 -4 -24 -26 6 -30 14 -2 22 -11
22 -23 0 -25 20 -25 27 0 3 11 13 21 24 24 25 7 25 27 0 27 -12 0 -21 8 -23
22 -4 30 -26 34 -30 6z"/>
<path d="M720 355 c0 -8 7 -15 15 -15 8 0 15 7 15 15 0 8 -7 15 -15 15 -8 0
-15 -7 -15 -15z"/>
<path d="M675 311 c-6 -11 9 -23 19 -14 9 9 7 23 -3 23 -6 0 -12 -4 -16 -9z"/>
<path d="M772 311 c4 -13 18 -16 19 -4 0 4 -5 9 -11 12 -7 2 -11 -2 -8 -8z"/>
<path d="M726 273 c-11 -11 -6 -23 9 -23 8 0 15 4 15 9 0 13 -16 22 -24 14z"/>
<path d="M397 252 c-24 -27 -21 -59 8 -78 23 -15 27 -15 50 0 46 30 26 96 -28
96 -8 0 -21 -8 -30 -18z"/>
<path d="M580 250 c-11 -11 -20 -27 -20 -35 0 -19 36 -55 55 -55 19 0 55 36
55 55 0 19 -36 55 -55 55 -8 0 -24 -9 -35 -20z"/>
<path d="M1917 763 c-4 -3 -7 -20 -7 -37 l0 -31 20 33 c11 18 20 35 20 37 0 7
-26 6 -33 -2z"/>
<path d="M1758 663 c-17 -38 -37 -89 -44 -114 -16 -52 -52 -110 -73 -117 -19
-6 -10 50 19 113 17 38 19 49 9 56 -18 11 -33 -4 -75 -72 -19 -33 -38 -59 -40
-59 -9 0 6 73 21 104 19 37 19 46 0 46 -15 0 -48 -93 -60 -172 -9 -59 10 -73
30 -24 21 50 71 127 78 119 4 -3 3 -13 -2 -22 -5 -9 -8 -30 -7 -48 0 -17 -2
-29 -6 -26 -5 2 -8 -5 -8 -17 0 -12 5 -18 10 -15 6 3 10 1 10 -4 0 -19 25 -12
39 10 l13 22 17 -27 c14 -21 20 -23 31 -13 10 10 11 9 5 -3 -5 -8 12 8 38 35
l46 50 1 -42 c0 -53 13 -61 47 -27 15 15 28 23 30 17 2 -6 9 -17 16 -26 10
-13 16 -7 39 46 16 34 21 53 13 43 -25 -33 -27 -12 -5 53 24 72 24 71 7 71 -8
0 -19 -19 -26 -42 -27 -91 -101 -195 -101 -141 0 16 31 109 55 167 6 14 4 17
-9 15 -11 -3 -25 -25 -37 -59 -19 -54 -90 -140 -116 -140 -23 0 -14 45 18 88
17 24 24 40 16 36 -13 -4 -14 0 -8 28 13 53 40 109 61 128 18 16 18 18 4 24
-8 3 -18 6 -20 6 -3 0 -19 -30 -36 -67z"/>
<path d="M2537 703 c-8 -16 -20 -46 -27 -68 -7 -22 -19 -47 -26 -56 -8 -9 -12
-18 -9 -21 3 -3 -2 -37 -11 -77 -24 -104 -7 -112 43 -20 21 40 45 75 52 77 10
3 12 0 7 -14 -4 -11 -10 -40 -13 -66 -5 -40 -3 -49 12 -55 13 -4 23 0 33 15
19 29 30 28 42 -3 12 -32 32 -33 24 -1 -3 13 0 43 6 67 24 89 60 141 60 86 0
-13 5 -28 11 -34 8 -8 5 -24 -12 -59 -13 -27 -23 -54 -22 -61 0 -6 -6 -9 -15
-6 -10 4 -13 2 -8 -5 4 -7 12 -12 17 -12 13 0 59 99 59 127 0 12 4 24 9 27 10
6 -13 61 -30 71 -24 15 -51 -10 -83 -78 -33 -70 -70 -116 -82 -104 -4 4 5 41
20 83 22 61 25 78 15 85 -17 10 -31 -2 -71 -64 -27 -42 -34 -48 -36 -30 -3 20
51 176 69 199 9 11 2 24 -12 24 -5 0 -15 -12 -22 -27z"/>
<path d="M1357 690 c-44 -38 -78 -118 -85 -197 -4 -56 -2 -64 21 -87 78 -78
200 43 201 201 1 52 -3 65 -23 87 -33 35 -72 34 -114 -4z m109 -5 c32 -49 -7
-187 -72 -256 -13 -14 -22 -27 -20 -30 2 -2 -8 -5 -24 -6 -44 -3 -64 27 -57
87 13 108 88 224 149 229 4 1 15 -10 24 -24z"/>
<path d="M1831 685 c0 -12 -5 -25 -9 -30 -11 -14 -33 -65 -27 -65 11 0 46 83
42 98 -4 13 -5 12 -6 -3z"/>
<path d="M2105 563 c-49 -105 -59 -122 -74 -128 -25 -10 -26 5 -3 68 35 94 35
94 18 100 -11 4 -25 -8 -48 -41 -17 -26 -24 -41 -15 -33 26 21 29 10 13 -50
-9 -37 -10 -58 -4 -66 15 -19 36 -16 50 7 17 26 22 25 36 -4 8 -19 18 -24 42
-24 25 1 37 10 63 47 l31 46 -49 -43 c-26 -23 -53 -41 -59 -39 -14 5 -11 86 4
101 5 5 10 16 10 24 0 8 9 30 21 49 16 26 24 31 34 23 17 -14 8 -44 -22 -74
-15 -15 -19 -24 -10 -22 44 6 69 66 41 97 -30 33 -50 23 -79 -38z"/>
<path d="M2357 602 c-23 -25 -21 -73 4 -133 18 -40 19 -52 9 -64 -11 -13 -10
-14 4 -9 28 11 31 52 7 101 -26 55 -26 55 5 92 24 28 24 31 6 31 -10 0 -26 -8
-35 -18z"/>
<path d="M2833 588 c-33 -96 -74 -262 -68 -276 6 -14 9 -11 16 13 5 17 10 40
12 52 4 32 11 35 41 21 26 -11 29 -9 64 31 32 37 37 50 37 91 0 26 3 46 8 43
13 -8 8 22 -7 43 -15 19 -15 18 -38 -5 -13 -14 -15 -19 -5 -11 30 22 36 -2 15
-65 -20 -61 -51 -105 -74 -105 -24 0 -25 19 -3 61 12 24 23 54 24 68 2 14 6
36 10 49 12 36 -19 27 -32 -10z"/>
<path d="M2426 597 c3 -9 1 -24 -6 -32 -19 -23 -7 -35 16 -16 22 17 22 18 3
42 -12 15 -17 17 -13 6z"/>
<path d="M2317 409 c3 -10 12 -19 19 -19 20 0 17 13 -5 27 -16 10 -18 9 -14
-8z"/>
</g>
</svg>
